<?xml version="1.0" standalone="no"?><!DOCTYPE svg PUBLIC "-//W3C//DTD SVG 1.1//EN" "http://www.w3.org/Graphics/SVG/1.1/DTD/svg11.dtd"><svg t="1742111782639" class="icon" viewBox="0 0 1024 1024" version="1.1" xmlns="http://www.w3.org/2000/svg" p-id="8672" xmlns:xlink="http://www.w3.org/1999/xlink" width="200" height="200"><path d="M810.666667 89.6H213.333333C145.066667 89.6 89.6 145.066667 89.6 213.333333v597.333334c0 68.266667 55.466667 119.466667 123.733333 119.466666h597.333334c68.266667 0 119.466667-55.466667 119.466666-119.466666V213.333333c0-68.266667-51.2-123.733333-119.466666-123.733333zM166.4 810.666667V213.333333c0-25.6 21.333333-46.933333 46.933333-46.933333h132.266667v695.466667H213.333333c-25.6 0-46.933333-25.6-46.933333-51.2z m695.466667 0c0 25.6-21.333333 51.2-51.2 51.2H422.4V166.4H810.666667c25.6 0 51.2 21.333333 51.2 46.933333v597.333334z" p-id="8673"></path></svg>